/* XPM */
static char *_fe6fc25402c440dcbf8b253b6ecd458ppV8Gen2zS3wkFvq[] = {
/* columns rows colors chars-per-pixel */
"64 64 191 2 ",
"   c None",
".  c black",
"X  c #000001",
"o  c #000101",
"O  c #000102",
"+  c #000203",
"@  c #000304",
"#  c #000507",
"$  c #000608",
"%  c #010609",
"&  c #00080B",
"*  c #00090C",
"=  c #01080D",
"-  c #010A0F",
";  c #000C10",
":  c #000C11",
">  c #000D11",
",  c #000D12",
"<  c #020C14",
"1  c #000F15",
"2  c #001513",
"3  c #001A17",
"4  c #001218",
"5  c #03111B",
"6  c #03121D",
"7  c #01141E",
"8  c #001C1A",
"9  c #001D1B",
"0  c #00211F",
"q  c #00231F",
"w  c #001820",
"e  c #001921",
"r  c #001A23",
"t  c #001B25",
"y  c #001C26",
"u  c #041928",
"i  c #001D28",
"p  c #001F2A",
"a  c #021F2C",
"s  c #291136",
"d  c #2A1136",
"f  c #291C3F",
"g  c #30143F",
"h  c #31143F",
"j  c #002825",
"k  c #002925",
"l  c #00212D",
"z  c #00222E",
"x  c #00232F",
"c  c #002D29",
"v  c #002F2A",
"b  c #002430",
"n  c #002431",
"m  c #002532",
"M  c #002633",
"N  c #002735",
"B  c #003531",
"V  c #003631",
"C  c #003C36",
"Z  c #003E3A",
"A  c #291C40",
"S  c #371647",
"D  c #381748",
"F  c #3E1950",
"G  c #3F1A52",
"H  c #003041",
"J  c #003142",
"K  c #003243",
"L  c #003344",
"P  c #003D53",
"I  c #003E54",
"U  c #2F2049",
"Y  c #30214A",
"T  c #362554",
"R  c #372555",
"E  c #3D2A5E",
"W  c #3D2A5F",
"Q  c #54226D",
"!  c #55236E",
"~  c #532D76",
"^  c #532D77",
"/  c #5D2678",
"(  c #5D2679",
")  c #52387F",
"_  c #004641",
"`  c #004841",
"'  c #004942",
"]  c #004A43",
"[  c #004F47",
"{  c #00504A",
"}  c #00524A",
"|  c #00554D",
" . c #00584F",
".. c #005A51",
"X. c #005C53",
"o. c #005D57",
"O. c #005F56",
"+. c #005F58",
"@. c #005F59",
"#. c #006056",
"$. c #006059",
"%. c #006259",
"&. c #00665D",
"*. c #00685E",
"=. c #00695E",
"-. c #00695F",
";. c #006A5F",
":. c #004862",
">. c #004A64",
",. c #004B66",
"<. c #004C66",
"1. c #004E69",
"2. c #004F6A",
"3. c #00516D",
"4. c #00526F",
"5. c #006860",
"6. c #006A60",
"7. c #006B60",
"8. c #006A63",
"9. c #006B63",
"0. c #006F66",
"q. c #007166",
"w. c #00726A",
"e. c #00756D",
"r. c #007B6F",
"t. c #007970",
"y. c #007D74",
"u. c #007F76",
"i. c #007F77",
"p. c #008077",
"a. c #00867B",
"s. c #00877B",
"d. c #00877C",
"f. c #00877E",
"g. c #00887F",
"h. c #00897F",
"j. c #5C3283",
"k. c #5A3D8B",
"l. c #5A3E8C",
"z. c #652983",
"x. c #662A84",
"c. c #6C2C8C",
"v. c #6D2C8D",
"b. c #6D2D8E",
"n. c #6E2D8E",
"m. c #6E2D8F",
"M. c #64378E",
"N. c #6C3C9B",
"B. c #6C3D9B",
"V. c #7F34A5",
"C. c #0F5B92",
"Z. c #006B91",
"A. c #006C92",
"S. c #007098",
"D. c #00739C",
"F. c #00759E",
"G. c #007CA7",
"H. c #007DA9",
"J. c #624398",
"K. c #624399",
"L. c #6947A3",
"P. c #6948A3",
"I. c #6A48A4",
"U. c #6A48A5",
"Y. c #6B49A6",
"T. c #7C49B6",
"R. c #7D49B6",
"E. c #7D4AB7",
"W. c #7B54BF",
"Q. c #147CC7",
"!. c #008980",
"~. c #008A81",
"^. c #008B81",
"/. c #009185",
"(. c #009186",
"). c #00A095",
"_. c #0083B1",
"`. c #0087B6",
"'. c #008DBF",
"]. c #008EC1",
"[. c #0096CA",
"{. c #0096CB",
"}. c #0097CC",
"|. c #009BD2",
" X c #009CD3",
".X c #009DD5",
"XX c #009FD6",
"oX c #0999DE",
"OX c #00A0D8",
"+X c #00A1D9",
"@X c #00B3F2",
/* pixels */
"    . . . . . . . . . . . . . . . . . . . . . . . . . . . . . . . . . . . . . . . .                 . . . . . . . . . . . .     ",
"  . . . . . . . . . . . . . . . . . . . . . . . . . . . . . . . . . . . . . . . . . .             . . . . . . . . . . . . . .   ",
". . { ^.^.^.^.^.^.^.^.^.^.^.^.^.^.^.^.^.^.^.^.^.^.^.^.^.^.^.^.^.^.^.^.^.^.q.9.;.;.q . . . . . . . . W Y.Y.Y.Y.Y.Y.Y.B.b.b.G . . ",
". . ^.).).).).).).).).).).).).).).).).).).).).).).).).).).).).).).).).).).s.r.r.r.] . . . . . . . . Y.W.W.W.W.W.W.W.E.V.V.b.. . ",
". . ^.).).).).).).).).).).).).).).).).).).).).).).).).).).).).).).).).).).g.r.r.r.] . x _._._._.. . Y.W.W.W.W.W.W.W.E.V.V.m.. . ",
". . ^.).).).).).).).).).).).).).).).).).).).).).).).).).).).).).).).).).).s.r.r.r.] . H @X@X@X@X. . Y.W.W.W.W.W.W.W.T.V.V.m.. . ",
". . ^.).).).).).).).).).).).).).).).).).).).).).).).).).).).).).).).).).).s.r.r.r.] . H @X@X@X@X. . Y.W.W.W.W.W.W.W.E.V.V.m.. . ",
". . ^.).).).).).).).).).).).).).).).).).).).).).).).).).).).).).).).).).).s.r.r.t.` . H @X@X@X@X. . Y.W.W.W.W.W.W.W.E.V.V.m.. . ",
". . ^.).).).).).).).).).).).).).).).).).).).).).).).).).).).).).).).).).).f.r.r.r.` . H @X@X@X@X. . Y.W.W.W.W.W.W.W.E.V.V.b.. . ",
". . f.).).).).).).).).).).).).).).).).).).).).).).).).).).).).).).).).).).s.r.r.r.` . L @X@X@X@X@ . L.W.W.W.W.W.W.W.E.V.V.c.. . ",
". . B 9.9.9.9.9.9.9.9.9.9.9.9.9.9.9.9.9.9.9.9.9.9.9.9.9.9.9.9.9.9.9.9.9.9.| } { { 2 . 4.@X@X@X@Xl . f ) ) ) ) ) ) ) ~ ! ! s . . ",
"  . . . . . . . . . . . . . . . . . . . . . . . . . . . . . . . . . . . . . . . . . ; +X@X@X@X@XH.. . . . . . . . . . . . . .   ",
"    . . r b b b b b b b b b b b b b b b b b b b b b b b b b b b b b b b b b b b N >.OX@X@X@X@X@X@X`.I b b b b b a u u 6 . .     ",
"    . . _.@X@X@X@X@X@X@X@X@X@X@X@X@X@X@X@X@X@X@X@X@X@X@X@X@X@X@X@X@X@X@X@X@X@X@X@X@X@X@X@X@X@X@X@X@X@X@X@X@X@X@XoXQ.Q.C.. .     ",
"    . . _.@X@X@X@X@X@X@X@X@X@X@X@X@X@X@X@X@X@X@X@X@X@X@X@X@X@X@X@X@X@X@X@X@X@X@X@X@X@X@X@X@X@X@X@X@X@X@X@X@X@X@XoXQ.Q.C.. .     ",
"    . . _.@X@X@X@X@X@X@X@X@X@X@X@X@X@X@X@X@X@X@X@X@X@X@X@X@X@X@X@X@X@X@X@X@X@X@X@X@X@X@X@X@X@X@X@X@X@X@X@X@X@X@XoXQ.Q.C.. .     ",
"    . . _.@X@X@X@X@X@X@X@X@X@X@X@X@X@X@X@X@X@X@X@X@X@X@X@X@X@X@X@X@X@X@X@X@X@X@X@X@X@X@X@X@X@X@X@X@X@X@X@X@X@X@XoXQ.Q.C.. .     ",
"    . . * ; ; ; ; ; ; ; ; b S.@X@X@X@X@X@X].H 4 ; ; ; ; ; ; ; ; ; ; ; ; ; ; ; ; ; ; ; ; ; ; ; ; ; ; ; ; ; ; ; ; ; * * & . .     ",
"  . . . . . . . . . . . . . . A.@X@X@X@X[.# . . . . . . . . . . . . . . . . . . . . . . . . . . . . . . . . . . . . . . . . .   ",
". . R K.K.K.K.K.K.K.M.x.x.D . i @X@X@X@X,.. j y.p.p.p.p.p.p.p.p.p.p.p.p.p.p.p.p.p.p.p.p.p.p.p.p.p.p.p.p.p.p.p.p.i.0.$.$.$.B . . ",
". . Y.W.W.W.W.W.W.W.E.V.V.b.. . @X@X@X@XH . @.).).).).).).).).).).).).).).).).).).).).).).).).).).).).).).).).).)./.r.r.r.;.. . ",
". . Y.W.W.W.W.W.W.W.E.V.V.m.. . @X@X@X@XH . $.).).).).).).).).).).).).).).).).).).).).).).).).).).).).).).).).).)./.r.r.r.9.. . ",
". . Y.W.W.W.W.W.W.W.E.V.V.m.. . @X@X@X@XH . $.).).).).).).).).).).).).).).).).).).).).).).).).).).).).).).).).).)./.r.r.r.;.. . ",
". . Y.W.W.W.W.W.W.W.E.V.V.m.. . @X@X@X@XH . $.).).).).).).).).).).).).).).).).).).).).).).).).).).).).).).).).).)./.r.r.r.9.. . ",
". . Y.W.W.W.W.W.W.W.E.V.V.b.. . @X@X@X@XH . $.).).).).).).).).).).).).).).).).).).).).).).).).).).).).).).).).).)./.r.r.r.9.. . ",
". . Y.W.W.W.W.W.W.W.E.V.V.b.. . @X@X@X@XH . $.).).).).).).).).).).).).).).).).).).).).).).).).).).).).).).).).).)./.r.r.r.;.. . ",
". . P.W.W.W.W.W.W.W.T.V.V.b.. o @X@X@X@XH . @.).).).).).).).).).).).).).).).).).).).).).).).).).).).).).).).).).)./.r.r.r.;.. . ",
". . U k.l.l.l.l.l.l.j./ / g . l @X@X@X@X1.. 0 w.e.e.e.e.e.e.e.e.e.e.e.e.e.e.e.e.e.e.e.e.e.e.e.e.e.e.e.e.e.e.e.r.r.&. .....v . . ",
"  . . . . . . . . . o o . . . F.@X@X@X@X|.* . . . . o . . . . . o o o o . . . . . . . . o o . o . . . . . . . . . . . . . . .   ",
"    . . 4 r 7 7 7 r r 7 r L G.@X@X@X@X@X@X}.I t 7 r 7 r 7 r r 9 7 r 7 7 r 7 7 r 9 r r r 7 7 r 7 7 r 7 r 7 r r 7 7 5 5 < . .     ",
"    . . _.@X@X@X@X@X@X@X@X@X@X@X@X@X@X@X@X@X@X@X@X@X@X@X@X@X@X@X@X@X@X@X@X@X@X@X@X@X@X@X@X@X@X@X@X@X@X@X@X@X@X@XoXQ.Q.C.. .     ",
"    . . _.@X@X@X@X@X@X@X@X@X@X@X@X@X@X@X@X@X@X@X@X@X@X@X@X@X@X@X@X@X@X@X@X@X@X@X@X@X@X@X@X@X@X@X@X@X@X@X@X@X@X@XoXQ.Q.C.. .     ",
"    . . _.@X@X@X@X@X@X@X@X@X@X@X@X@X@X@X@X@X@X@X@X@X@X@X@X@X@X@X@X@X@X@X@X@X@X@X@X@X@X@X@X@X@X@X@X@X@X@X@X@X@X@XoX].Q.C.O O     ",
"    . . _.@X@X@X@X@X@X@X@X@X@X@X@X@X@X@X@X@X@X@X@X@X@X@X@X@X@X@X@X@X@X@X@X@X@X@X@X@X@X@X@X@X@X@X@X@X@X@X@X@X@X@XoXQ.Q.C.O O     ",
"    . . 4 7 r 7 7 r r 7 7 r r 7 7 r r 7 7 r r 7 7 r r 7 7 r r 7 r 7 r 7 7 r r 9 y P [.@X@X@X@X@X@XG.H r r 7 7 r 6 5 5 < O O     ",
"  . . . . . . . o o . . . . . . o o . . . . . . o o . . . . . . o o o o . . . . . . & |.@X@X@X@XD.. . . . . . . O O O O O O O   ",
". . Z r.e.e.e.e.r.e.e.e.e.e.e.e.r.e.e.e.e.e.e.e.r.e.e.e.e.e.e.e.e.e.e.e.r.O..... .3 . 3.@X@X@X@Xi . U l.l.l.l.l.l.l.x./ / h O O ",
". . g.).).).).).).).).).).).).).).).).).).).).).).).).).).).).).).).).).).s.r.r.r.` . L @X@X@X@X. . Y.W.W.W.W.W.W.W.E.V.V.n.O O ",
". . ^.).).).).).).).).).).).).).).).).).).).).).).).).).).).).).).).).).).f.r.r.r.] . H @X@X@X@X. . Y.W.W.W.W.W.W.W.R.V.V.n.O O ",
". . ^.).).).).).).).).).).).).).).).).).).).).).).).).).).).).).).).).).).s.r.r.r.] . H @X@X@X@X. . Y.W.W.W.W.W.W.W.R.V.V.n.O O ",
". . ^.).).).).).).).).).).).).).).).).).).).).).).).).).).).).).).).).).).s.r.r.r.] . H @X@X@X@X. . I.W.W.W.W.W.W.W.R.V.V.b.. . ",
". . ^.).).).).).).).).).).).).).).).).).).).).).).).).).).).).).).).).).).s.r.r.r.] . H @X@X@X@X. . Y.W.W.W.W.W.W.W.E.V.V.b.. . ",
". . ^.).).).).).).).).).).).).).).).).).).).).).).).).).).).).).).).).).).g.r.r.t.] . H @X@X@X@X. . I.W.W.W.W.W.W.W.E.V.V.m.. . ",
". . ^.).).).).).).).).).).).).).).).).).).).).).).).).).).).).).).).).).).s.r.r.r.` . H @X@X@X@X@ . I.W.W.W.W.W.W.W.E.V.V.b.. . ",
". . _ p.y.p.p.p.p.p.p.p.p.p.p.p.p.p.p.p.p.p.p.p.p.p.p.p.p.p.p.p.y.p.p.p.p.;.$.$.%.0 . >.@X@X@X@Xt . R K.K.K.K.K.K.K.M.x.x.D . . ",
"  . . . . . . . . . . . . . . . . . . . . . . . . . . . . . . . . . . . . . . . . . & }.@X@X@X@XZ.. . . . . . . . . . . . . .   ",
"    . . * ; ; ; ; ; ; ; ; ; ; ; ; ; ; ; ; ; ; ; ; ; ; ; ; ; ; ; ; ; ; ; ; ; ; ; 1 H ].@X@X@X@X@X@XS.b ; ; ; ; ; ; = * % . .     ",
"    . . _.@X@X@X@X@X@X@X@X@X@X@X@X@X@X@X@X@X@X@X@X@X@X@X@X@X@X@X@X@X@X@X@X@X@X@X@X@X@X@X@X@X@X@X@X@X@X@X@X@X@X@XoXQ.Q.C.. .     ",
"    . . _.@X@X@X@X@X@X@X@X@X@X@X@X@X@X@X@X@X@X@X@X@X@X@X@X@X@X@X@X@X@X@X@X@X@X@X@X@X@X@X@X@X@X@X@X@X@X@X@X@X@X@XoXQ.Q.C.. .     ",
"    . . _.@X@X@X@X@X@X@X@X@X@X@X@X@X@X@X@X@X@X@X@X@X@X@X@X@X@X@X@X@X@X@X@X@X@X@X@X@X@X@X@X@X@X@X@X@X@X@X@X@X@X@XoXQ.Q.C.. .     ",
"    . . _.@X@X@X@X@X@X@X@X@X@X@X@X@X@X@X@X@X@X@X@X@X@X@X@X@X@X@X@X@X@X@X@X@X@X@X@X@X@X@X@X@X@X@X@X@X@X@X@X@X@X@XoXQ.Q.C.. .     ",
"    . . r b b b b b b b l :.`.@X@X@X@X@X@X.X:.N b b b b b b b b b b b b b b b b b b b b b b b b b b b b b b b b a u u 6 . .     ",
"  . . . . . . . . . . . . . . H.@X@X@X@X+X; . . . . . . . . . . . . . . . . . . . . . . . . . . . . . . . . . . . . . . . . .   ",
". . f j.) ) ) ) ) ) ^ ! Q s . l @X@X@X@X3.. 8 9.9.9.9.9.9.9.9.9.9.9.9.9.9.9.9.9.9.9.9.9.9.9.9.9.8.0.0.8.9.9.9.9.9.X.} { { j . . ",
". . L.W.W.W.W.W.W.W.E.V.V.b.. # @X@X@X@XL . O.).).).).).).).).).).).).).).).).).).).).).).).).).).).).).).).).).).(.r.r.r.;.. . ",
". . Y.W.W.W.W.W.W.W.E.V.V.b.. . @X@X@X@XH . $.).).).).).).).).).).).).).).).).).).).).).).).).).).).).).).).).).).(.r.r.r.9.. . ",
". . Y.W.W.W.W.W.W.W.T.V.V.b.. . @X@X@X@XH . $.).).).).).).).).).).).).).).).).).).).).).).).).).).).).).).).).).).(.r.r.r.;.. . ",
". . Y.W.W.W.W.W.W.W.T.V.V.b.. . @X@X@X@XH . $.).).).).).).).).).).).).).).).).).).).).).).).).).).).).).).).).).).(.r.r.r.;.. . ",
". . Y.W.W.W.W.W.W.W.E.V.V.m.. . @X@X@X@XH . $.).).).).).).).).).).).).).).).).).).).).).).).).).).).).).).).).).)./.r.r.r.;.. . ",
". . Y.W.W.W.W.W.W.W.E.V.V.b.. . _._._._.x . $.).).).).).).).).).).).).).).).).).).).).).).).).).).).).).).).).).)./.r.r.r.9.. . ",
". . I.W.W.W.W.W.W.W.E.V.V.b.. . . . . . . . $.).).).).).).).).).).).).).).).).).).).).).).).).).).).).).).).).).)./.r.r.r.;.o . ",
". . W I.Y.Y.Y.Y.I.I.N.m.b.G . . . . . . . . v g.^.^.^.^.^.^.^.^.^.^.^.^.^.^.^.^.^.^.^.^.^.^.^.^.^.^.^.^.^.^.^.^.^.r.;.9.;.C . . ",
"  . . . . . . . . . . . . . .             . . . . . . . . . . . . . . . . . . . . . . . . . . . . . . . . . . . . . . . . . .   ",
"    . . . . . . . . . . . .                 . . . . . . . . . . . . . . . . . . . . . . . . . . . . . . . . . . . . . . . .     "
};
